<?xml version="1.0" encoding="UTF-8"?> <svg xmlns="http://www.w3.org/2000/svg" id="Слой_1" data-name="Слой 1" viewBox="0 0 663.5 654.5"><defs><style>.cls-1{fill:none;stroke:#29abe2;stroke-linecap:round;stroke-miterlimit:10;stroke-width:61px;}.cls-2{fill:#fff;}.cls-3{fill:#29abe2;}</style></defs><line class="cls-1" x1="326" y1="326.5" x2="633" y2="624"></line><circle class="cls-2" cx="197.5" cy="197.5" r="180.5"></circle><path class="cls-3" d="M841.5,196a163.51,163.51,0,1,1-115.61,47.89A162.43,162.43,0,0,1,841.5,196m0-34C732.42,162,644,250.42,644,359.5S732.42,557,841.5,557,1039,468.58,1039,359.5,950.58,162,841.5,162Z" transform="translate(-644 -162)"></path><path class="cls-3" d="M779.59,462.69a38.86,38.86,0,0,1-8.75-1.5,65.32,65.32,0,0,1-8.16-2.91,77.51,77.51,0,0,1-14.7-8.63,89.34,89.34,0,0,1-22.7-25.06A90.3,90.3,0,0,1,713.21,393c-.27-1.38-.42-2.8-.61-4.2a39.39,39.39,0,0,1-.4-4.22c-.07-1.42-.2-2.82-.2-4.24s0-2.84.08-4.26a58.81,58.81,0,0,1,3.13-17l1.58-.26c.56,2.52,1,5.06,1.65,7.57s1.22,5,2,7.48l1.06,3.71,1.19,3.68c.76,2.46,1.71,4.86,2.59,7.28a160.71,160.71,0,0,0,13.63,27.62,157.87,157.87,0,0,0,18.51,24.62,147.9,147.9,0,0,0,10.94,10.89,106,106,0,0,0,12,9.59Z" transform="translate(-644 -162)"></path></svg> 