<?xml version="1.0" encoding="utf-8"?>
<!-- Generator: Adobe Illustrator 27.5.0, SVG Export Plug-In . SVG Version: 6.00 Build 0)  -->
<svg version="1.1" xmlns="http://www.w3.org/2000/svg" xmlns:xlink="http://www.w3.org/1999/xlink" x="0px" y="0px"
	 viewBox="0 0 500 500" style="enable-background:new 0 0 500 500;" xml:space="preserve">
<g id="Background_Complete">
	<g>
		<rect y="382.398" style="fill:#EBEBEB;" width="500" height="0.25"/>
		<rect x="416.779" y="398.494" style="fill:#EBEBEB;" width="33.122" height="0.25"/>
		<rect x="322.527" y="401.208" style="fill:#EBEBEB;" width="8.693" height="0.25"/>
		<rect x="396.586" y="389.208" style="fill:#EBEBEB;" width="19.192" height="0.25"/>
		<rect x="52.459" y="390.888" style="fill:#EBEBEB;" width="43.193" height="0.25"/>
		<rect x="104.556" y="390.888" style="fill:#EBEBEB;" width="6.333" height="0.25"/>
		<rect x="131.471" y="395.111" style="fill:#EBEBEB;" width="93.676" height="0.25"/>
		<path style="fill:#EBEBEB;" d="M237.014,337.8H43.915c-3.147,0-5.708-2.561-5.708-5.708V60.66c0-3.147,2.561-5.708,5.708-5.708
			h193.099c3.146,0,5.707,2.561,5.707,5.708v271.432C242.721,335.239,240.16,337.8,237.014,337.8z M43.915,55.203
			c-3.01,0-5.458,2.448-5.458,5.458v271.432c0,3.01,2.448,5.458,5.458,5.458h193.099c3.009,0,5.457-2.448,5.457-5.458V60.66
			c0-3.009-2.448-5.458-5.457-5.458H43.915z"/>
		<path style="fill:#EBEBEB;" d="M453.31,337.8H260.212c-3.147,0-5.707-2.561-5.707-5.708V60.66c0-3.147,2.561-5.708,5.707-5.708
			H453.31c3.148,0,5.708,2.561,5.708,5.708v271.432C459.019,335.239,456.458,337.8,453.31,337.8z M260.212,55.203
			c-3.009,0-5.457,2.448-5.457,5.458v271.432c0,3.01,2.448,5.458,5.457,5.458H453.31c3.01,0,5.458-2.448,5.458-5.458V60.66
			c0-3.009-2.448-5.458-5.458-5.458H260.212z"/>
	</g>
	<g>
		<g>
			<path style="fill:#E6E6E6;" d="M104.186,158.677c0,0-1.172-7.726,4.463-12.68c5.635-4.954,5.14-7.901,3.53-8.285
				s-3.096,4.57-5.573,5.932c0,0-0.078-7.059,2.438-9.66c2.516-2.601,3.836-9.301,1.442-9.418c-2.394-0.118-2.642,3.979-3.137,6.885
				s-3.163,6.992-3.163,6.992s-0.521-6.316-2.147-8.917c-1.626-2.601,2.709-8.546,1.037-11.146
				c-1.672-2.601-4.644,2.353-4.397,7.926c0.248,5.573,3.963,11.518,3.096,17.339c0,0-1.639-4.087-3.111-4.458
				c-1.472-0.372-2.958-3.075-3.948-4.076c-0.991-1.002-2.229,2.466,0,5.686c2.229,3.22,7.926,11.835,7.059,18.798L104.186,158.677z
				"/>
			<path style="fill:#E6E6E6;" d="M107.554,155.161l1.845,11.58c0.57,3.576-2.193,6.814-5.815,6.814h-1.968
				c-3.621,0-6.385-3.238-5.815-6.814l1.845-11.58H107.554z"/>
			
				<rect x="79.644" y="169.283" transform="matrix(-1 -1.224647e-16 1.224647e-16 -1 289.7269 345.2672)" style="fill:#E0E0E0;" width="130.438" height="6.702"/>
			
				<rect x="198.332" y="144.579" transform="matrix(-1 -1.224647e-16 1.224647e-16 -1 402.4112 313.8615)" style="fill:#EBEBEB;" width="5.746" height="24.704"/>
			
				<rect x="170.546" y="144.579" transform="matrix(-1 -1.224647e-16 1.224647e-16 -1 346.8378 313.8615)" style="fill:#EBEBEB;" width="5.747" height="24.704"/>
			
				<rect x="136.861" y="144.27" transform="matrix(-0.9855 -0.1698 0.1698 -0.9855 250.8384 334.7014)" style="fill:#EBEBEB;" width="5.747" height="24.704"/>
			
				<rect x="191.212" y="147.834" transform="matrix(-1 -1.224647e-16 1.224647e-16 -1 388.1702 317.117)" style="fill:#EBEBEB;" width="5.747" height="21.448"/>
			
				<rect x="178.003" y="147.834" transform="matrix(-1 -1.224647e-16 1.224647e-16 -1 361.7533 317.117)" style="fill:#EBEBEB;" width="5.747" height="21.448"/>
			
				<rect x="144.664" y="147.834" transform="matrix(-1 -1.224647e-16 1.224647e-16 -1 295.0745 317.117)" style="fill:#EBEBEB;" width="5.747" height="21.448"/>
			
				<rect x="160.603" y="147.466" transform="matrix(-0.9762 -0.2169 0.2169 -0.9762 288.7509 348.0725)" style="fill:#EBEBEB;" width="5.747" height="21.448"/>
			
				<rect x="186.243" y="143.352" transform="matrix(-1 -1.224647e-16 1.224647e-16 -1 375.359 312.635)" style="fill:#EBEBEB;" width="2.873" height="25.93"/>
			
				<rect x="152.062" y="143.352" transform="matrix(-1 -1.224647e-16 1.224647e-16 -1 306.998 312.635)" style="fill:#EBEBEB;" width="2.873" height="25.93"/>
		</g>
		<g>
			<rect x="79.644" y="219.314" style="fill:#E0E0E0;" width="130.438" height="6.702"/>
			<rect x="85.648" y="194.61" style="fill:#EBEBEB;" width="5.747" height="24.704"/>
			<rect x="113.435" y="194.61" style="fill:#EBEBEB;" width="5.747" height="24.704"/>
			
				<rect x="147.119" y="194.302" transform="matrix(0.9855 -0.1698 0.1698 0.9855 -32.9194 28.4775)" style="fill:#EBEBEB;" width="5.746" height="24.704"/>
			<rect x="92.769" y="197.866" style="fill:#EBEBEB;" width="5.746" height="21.448"/>
			<rect x="105.977" y="197.866" style="fill:#EBEBEB;" width="5.747" height="21.448"/>
			<rect x="139.316" y="197.866" style="fill:#EBEBEB;" width="5.747" height="21.448"/>
			
				<rect x="123.377" y="197.498" transform="matrix(0.9762 -0.2169 0.2169 0.9762 -42.1567 32.3396)" style="fill:#EBEBEB;" width="5.747" height="21.449"/>
			<rect x="100.611" y="193.384" style="fill:#EBEBEB;" width="2.873" height="25.93"/>
			<rect x="134.791" y="193.384" style="fill:#EBEBEB;" width="2.873" height="25.93"/>
			<rect x="169.566" y="199.762" style="fill:#EBEBEB;" width="28" height="19.331"/>
		</g>
		<g>
			<path style="fill:#E0E0E0;" d="M423.895,135.795H264.574c-1.172,0-2.122-0.95-2.122-2.122v-2.268c0-1.172,0.95-2.122,2.122-2.122
				h159.32c1.172,0,2.122,0.95,2.122,2.122v2.268C426.017,134.845,425.067,135.795,423.895,135.795z"/>
			<rect x="272.169" y="134.464" style="fill:#E6E6E6;" width="144.132" height="127.896"/>
			<rect x="275.778" y="137.969" style="fill:#F0F0F0;" width="136.729" height="120.953"/>
			<polygon style="fill:#FFFFFF;" points="307.867,137.969 275.778,258.659 275.778,201.948 292.72,137.969 			"/>
			<polygon style="fill:#FFFFFF;" points="319.232,137.969 286.861,258.922 281.695,258.922 314.065,137.969 			"/>
			<polygon style="fill:#FFFFFF;" points="407.532,137.969 375.161,258.922 369.995,258.922 402.365,137.969 			"/>
			<polygon style="fill:#FFFFFF;" points="412.507,214.291 412.507,233.619 405.957,258.922 400.791,258.922 			"/>
			<rect x="321.164" y="135.795" style="fill:#E6E6E6;" width="2.304" height="125.828"/>
			<rect x="365.799" y="135.795" style="fill:#E6E6E6;" width="2.303" height="125.828"/>
			<g>
				<path style="fill:#E0E0E0;" d="M392.811,131.364c0,0,3.314,43.271,22.385,65.324c0,0-13.889,55.686-13.879,75.104l25.813-4.764
					l-9.304-70.017l4.45-65.647H392.811z"/>
				<path style="fill:#E0E0E0;" d="M295.659,131.364c0,0-3.315,43.271-22.385,65.324c0,0,13.889,55.686,13.879,75.104l-25.813-4.764
					l9.304-70.017l-4.45-65.647H295.659z"/>
			</g>
		</g>
	</g>
</g>
<g id="Background_Simple" style="display:none;">
	<g style="display:inline;">
		<path style="fill:#407BFF;" d="M243.106,99.131c-74.678,33.599-6.887,93.483-50.006,126.096
			c-43.119,32.613-160.356-5.09-115.664,79.6c52.497,99.479,282.385,85.665,331.952-36.353S317.784,65.531,243.106,99.131z"/>
		<path style="opacity:0.9;fill:#FFFFFF;" d="M243.106,99.131c-74.678,33.599-6.887,93.483-50.006,126.096
			c-43.119,32.613-160.356-5.09-115.664,79.6c52.497,99.479,282.385,85.665,331.952-36.353S317.784,65.531,243.106,99.131z"/>
	</g>
</g>
<g id="Shadow_1_">
	<ellipse id="_x3C_Path_x3E__359_" style="fill:#F5F5F5;" cx="250" cy="416.238" rx="193.889" ry="11.323"/>
</g>
<g id="Interface">
	<g>
		<path style="fill:#263238;" d="M367.497,371.581H237.822c-4.876,0-8.828-3.953-8.828-8.828V115.414
			c0-4.876,3.952-8.828,8.828-8.828h129.675c4.876,0,8.828,3.953,8.828,8.828v247.339
			C376.326,367.629,372.373,371.581,367.497,371.581z"/>
		<path style="fill:#407BFF;" d="M371.354,115.463V362.23c0,2.03-1.631,3.606-3.661,3.606H237.237c-1.866,0-3.271-1.444-3.271-3.31
			v-247.36c0-1.616,1.187-3.029,2.802-3.029h32.614c0.921,0,1.756,0.601,2.1,1.468l1.35,3.325c0.343,0.859,1.179,1.452,2.1,1.452
			h55.525c0.921,0,1.756-0.57,2.1-1.428l1.35-3.341c0.344-0.867,1.179-1.475,2.1-1.475h32.145
			C369.933,112.138,371.354,113.683,371.354,115.463z"/>
		<rect x="233.966" y="127.555" style="opacity:0.6;fill:#FFFFFF;enable-background:new    ;" width="137.387" height="224.404"/>
		<g>
			<g>
				
					<rect x="249.107" y="119.82" transform="matrix(-1 -1.224647e-16 1.224647e-16 -1 499.9102 241.9021)" style="opacity:0.6;fill:#FFFFFF;enable-background:new    ;" width="1.697" height="2.262"/>
				
					<rect x="246.341" y="119.065" transform="matrix(-1 -1.224647e-16 1.224647e-16 -1 494.3789 241.1474)" style="opacity:0.6;fill:#FFFFFF;enable-background:new    ;" width="1.697" height="3.017"/>
				
					<rect x="243.575" y="118.311" transform="matrix(-1 -1.224647e-16 1.224647e-16 -1 488.8477 240.3927)" style="opacity:0.6;fill:#FFFFFF;enable-background:new    ;" width="1.697" height="3.772"/>
				
					<rect x="240.81" y="117.556" transform="matrix(-1 -1.224647e-16 1.224647e-16 -1 483.3165 239.6379)" style="opacity:0.6;fill:#FFFFFF;enable-background:new    ;" width="1.697" height="4.527"/>
			</g>
			<g>
				<rect x="354.799" y="118.994" style="opacity:0.6;fill:#FFFFFF;enable-background:new    ;" width="1.006" height="2.262"/>
				
					<rect x="356.496" y="118.169" transform="matrix(-1 -1.224647e-16 1.224647e-16 -1 721.0066 240.2508)" style="opacity:0.6;fill:#FFFFFF;enable-background:new    ;" width="8.014" height="3.914"/>
			</g>
		</g>
		<rect x="235.699" y="236.252" style="opacity:0.6;fill:#FFFFFF;enable-background:new    ;" width="133.922" height="27.111"/>
		<g>
			<circle style="opacity:0.6;fill:#FFFFFF;enable-background:new    ;" cx="300.752" cy="112.463" r="1.886"/>
			<path style="opacity:0.6;fill:#FFFFFF;enable-background:new    ;" d="M306.454,112.463c0,0.667-0.541,1.208-1.208,1.208
				c-0.667,0-1.208-0.541-1.208-1.208c0-0.667,0.541-1.208,1.208-1.208C305.913,111.255,306.454,111.796,306.454,112.463z"/>
		</g>
		<rect x="235.699" y="305.738" style="opacity:0.6;fill:#FFFFFF;enable-background:new    ;" width="133.922" height="15.766"/>
		<g>
			<path style="fill:#263238;" d="M303.379,310.596v6.302h-0.891v-5.519h-1.422v-0.783H303.379z"/>
		</g>
		<g>
			<g>
				<path style="fill:#263238;" d="M338.301,253.92v1.283h-0.727v-1.283c-1.112-0.057-2.169-0.442-2.759-0.987l0.42-0.886
					c0.534,0.488,1.419,0.852,2.339,0.908v-2.634c-1.249-0.307-2.565-0.704-2.565-2.247c0-1.124,0.806-2.101,2.565-2.248v-1.295
					h0.727v1.283c0.852,0.034,1.703,0.284,2.305,0.692l-0.375,0.908c-0.613-0.386-1.294-0.601-1.93-0.636v2.646
					c1.272,0.317,2.634,0.692,2.634,2.248C340.935,252.797,340.095,253.773,338.301,253.92z M337.575,249.243v-2.452
					c-1.01,0.125-1.453,0.636-1.453,1.237C336.122,248.732,336.757,249.027,337.575,249.243z M339.823,251.74
					c0-0.727-0.682-1.01-1.522-1.237v2.441C339.357,252.842,339.823,252.354,339.823,251.74z"/>
				<path style="fill:#263238;" d="M344.3,245.895v7.946h-1.124v-6.959h-1.794v-0.987H344.3z"/>
				<path style="fill:#263238;" d="M346.017,253.126c0-0.454,0.352-0.773,0.772-0.773c0.409,0,0.749,0.318,0.749,0.773
					c0,0.454-0.34,0.783-0.749,0.783C346.369,253.909,346.017,253.58,346.017,253.126z"/>
				<path style="fill:#263238;" d="M354.533,249.766c0,2.713-1.532,4.166-3.758,4.166c-0.749,0-1.464-0.147-1.975-0.466l0.431-0.885
					c0.42,0.272,0.954,0.374,1.533,0.374c1.612,0,2.634-1.01,2.634-2.997v-0.283c-0.465,0.692-1.305,1.044-2.293,1.044
					c-1.578,0-2.713-0.942-2.713-2.406c0-1.533,1.226-2.51,2.804-2.51C353.33,245.803,354.533,247.233,354.533,249.766z
					 M353.136,248.256c0-0.818-0.658-1.533-1.896-1.533c-1.033,0-1.749,0.602-1.749,1.544c0,0.931,0.693,1.532,1.805,1.532
					C352.387,249.799,353.136,249.13,353.136,248.256z"/>
				<path style="fill:#263238;" d="M361.542,249.766c0,2.713-1.533,4.166-3.757,4.166c-0.75,0-1.465-0.147-1.976-0.466l0.432-0.885
					c0.42,0.272,0.953,0.374,1.532,0.374c1.612,0,2.634-1.01,2.634-2.997v-0.283c-0.465,0.692-1.306,1.044-2.293,1.044
					c-1.578,0-2.713-0.942-2.713-2.406c0-1.533,1.226-2.51,2.804-2.51C360.339,245.803,361.542,247.233,361.542,249.766z
					 M360.146,248.256c0-0.818-0.659-1.533-1.896-1.533c-1.033,0-1.749,0.602-1.749,1.544c0,0.931,0.692,1.532,1.805,1.532
					C359.397,249.799,360.146,249.13,360.146,248.256z"/>
			</g>
			<g>
				<path style="fill:#263238;" d="M246.054,257.207v0.455h-2.632v-0.355l1.491-1.439c0.388-0.377,0.461-0.607,0.461-0.838
					c0-0.377-0.267-0.606-0.78-0.606c-0.393,0-0.712,0.125-0.937,0.397l-0.356-0.309c0.283-0.351,0.77-0.555,1.34-0.555
					c0.764,0,1.256,0.393,1.256,1.02c0,0.355-0.105,0.675-0.602,1.151l-1.12,1.078H246.054z"/>
				<path style="fill:#263238;" d="M246.464,255.83c0-1.193,0.638-1.873,1.497-1.873c0.853,0,1.492,0.68,1.492,1.873
					c0,1.193-0.639,1.874-1.492,1.874C247.102,257.704,246.464,257.023,246.464,255.83z M248.929,255.83
					c0-0.936-0.398-1.407-0.968-1.407c-0.576,0-0.974,0.471-0.974,1.407c0,0.938,0.398,1.408,0.974,1.408
					C248.531,257.238,248.929,256.768,248.929,255.83z"/>
				<path style="fill:#263238;" d="M249.894,254.967c0-0.597,0.345-1,0.853-1c0.507,0,0.848,0.398,0.848,1c0,0.602-0.34,1-0.848,1
					C250.239,255.967,249.894,255.564,249.894,254.967z M251.259,254.967c0-0.439-0.193-0.701-0.513-0.701
					c-0.314,0-0.513,0.267-0.513,0.701s0.199,0.701,0.513,0.701C251.066,255.668,251.259,255.406,251.259,254.967z M252.955,253.998
					h0.403l-2.501,3.664h-0.403L252.955,253.998z M252.217,256.694c0-0.597,0.34-1,0.848-1c0.508,0,0.853,0.403,0.853,1
					c0,0.596-0.345,0.999-0.853,0.999C252.557,257.693,252.217,257.29,252.217,256.694z M253.578,256.694
					c0-0.435-0.199-0.702-0.513-0.702c-0.319,0-0.513,0.262-0.513,0.702c0,0.439,0.193,0.701,0.513,0.701
					C253.379,257.396,253.578,257.128,253.578,256.694z"/>
				<path style="fill:#263238;" d="M254.447,256.275c0-0.827,0.612-1.413,1.445-1.413c0.832,0,1.439,0.586,1.439,1.413
					c0,0.827-0.607,1.418-1.439,1.418C255.059,257.693,254.447,257.103,254.447,256.275z M256.823,256.275
					c0-0.592-0.398-0.974-0.931-0.974c-0.534,0-0.937,0.382-0.937,0.974c0,0.591,0.403,0.979,0.937,0.979
					C256.425,257.254,256.823,256.866,256.823,256.275z"/>
				<path style="fill:#263238;" d="M258.588,254.648v0.241h0.806v0.413h-0.796v2.36h-0.502v-2.36h-0.471v-0.413h0.471v-0.246
					c0-0.539,0.325-0.895,0.916-0.895c0.215,0,0.424,0.053,0.565,0.162l-0.152,0.383c-0.104-0.079-0.241-0.131-0.387-0.131
					C258.74,254.161,258.588,254.328,258.588,254.648z"/>
				<path style="fill:#263238;" d="M260.434,254.648v0.241h0.806v0.413h-0.796v2.36h-0.502v-2.36h-0.471v-0.413h0.471v-0.246
					c0-0.539,0.325-0.895,0.916-0.895c0.215,0,0.424,0.053,0.566,0.162l-0.152,0.383c-0.104-0.079-0.241-0.131-0.387-0.131
					C260.585,254.161,260.434,254.328,260.434,254.648z"/>
			</g>
			<g>
				<path style="fill:#263238;" d="M243.66,245.954c0-1.863,1.422-3.223,3.34-3.223c0.973,0,1.819,0.333,2.395,0.982l-0.585,0.567
					c-0.486-0.514-1.08-0.747-1.773-0.747c-1.422,0-2.475,1.026-2.475,2.421c0,1.395,1.053,2.422,2.475,2.422
					c0.693,0,1.288-0.243,1.773-0.756l0.585,0.567c-0.576,0.648-1.422,0.99-2.404,0.99
					C245.082,249.178,243.66,247.818,243.66,245.954z"/>
				<path style="fill:#263238;" d="M249.917,246.72c0-1.423,1.054-2.431,2.485-2.431c1.432,0,2.475,1.008,2.475,2.431
					c0,1.423-1.044,2.439-2.475,2.439C250.971,249.159,249.917,248.143,249.917,246.72z M254.004,246.72
					c0-1.018-0.684-1.675-1.602-1.675c-0.918,0-1.611,0.657-1.611,1.675c0,1.018,0.693,1.684,1.611,1.684
					C253.32,248.403,254.004,247.737,254.004,246.72z"/>
				<path style="fill:#263238;" d="M263.998,246.359v2.746h-0.864v-2.646c0-0.936-0.45-1.395-1.233-1.395
					c-0.864,0-1.432,0.549-1.432,1.584v2.458h-0.864v-2.646c0-0.936-0.45-1.395-1.233-1.395c-0.864,0-1.431,0.549-1.431,1.584v2.458
					h-0.864v-4.771h0.828v0.711c0.342-0.485,0.927-0.756,1.648-0.756c0.729,0,1.341,0.288,1.657,0.882
					c0.36-0.54,1.026-0.882,1.836-0.882C263.205,244.289,263.998,244.955,263.998,246.359z"/>
				<path style="fill:#263238;" d="M270.534,246.72c0,1.458-1.017,2.439-2.413,2.439c-0.702,0-1.315-0.27-1.702-0.81v0.756h-0.828
					v-6.68h0.864v2.629c0.396-0.514,0.99-0.766,1.666-0.766C269.517,244.289,270.534,245.262,270.534,246.72z M269.661,246.72
					c0-1.018-0.693-1.675-1.612-1.675c-0.909,0-1.602,0.657-1.602,1.675c0,1.018,0.693,1.684,1.602,1.684
					C268.968,248.403,269.661,247.737,269.661,246.72z"/>
				<path style="fill:#263238;" d="M271.29,246.72c0-1.423,1.054-2.431,2.485-2.431c1.432,0,2.476,1.008,2.476,2.431
					c0,1.423-1.044,2.439-2.476,2.439C272.344,249.159,271.29,248.143,271.29,246.72z M275.378,246.72
					c0-1.018-0.684-1.675-1.603-1.675c-0.918,0-1.611,0.657-1.611,1.675c0,1.018,0.693,1.684,1.611,1.684
					C274.694,248.403,275.378,247.737,275.378,246.72z"/>
				<path style="fill:#263238;" d="M283.913,248.322v0.783h-4.528v-0.612l2.566-2.476c0.666-0.648,0.792-1.044,0.792-1.44
					c0-0.648-0.459-1.044-1.341-1.044c-0.675,0-1.224,0.216-1.611,0.684l-0.612-0.531c0.486-0.603,1.323-0.954,2.305-0.954
					c1.314,0,2.161,0.676,2.161,1.756c0,0.612-0.18,1.161-1.035,1.98l-1.927,1.854H283.913z"/>
			</g>
		</g>
		<rect x="235.699" y="265.279" style="opacity:0.6;fill:#FFFFFF;enable-background:new    ;" width="133.922" height="38.544"/>
		<g>
			<path style="opacity:0.2;" d="M289.304,276.212h-46.066c-0.591,0-1.071-0.479-1.071-1.071l0,0c0-0.591,0.479-1.071,1.071-1.071
				h46.066c0.591,0,1.071,0.479,1.071,1.071l0,0C290.375,275.732,289.896,276.212,289.304,276.212z"/>
			<path style="opacity:0.2;" d="M362.082,282.158H243.238c-0.591,0-1.071-0.479-1.071-1.071l0,0c0-0.591,0.479-1.071,1.071-1.071
				h118.843c0.591,0,1.071,0.479,1.071,1.071l0,0C363.152,281.679,362.673,282.158,362.082,282.158z"/>
			<path style="opacity:0.2;" d="M362.082,288.104H243.238c-0.591,0-1.071-0.479-1.071-1.071l0,0c0-0.591,0.479-1.071,1.071-1.071
				h118.843c0.591,0,1.071,0.479,1.071,1.071l0,0C363.152,287.625,362.673,288.104,362.082,288.104z"/>
			<path style="opacity:0.2;" d="M362.082,294.051H243.238c-0.591,0-1.071-0.479-1.071-1.071l0,0c0-0.591,0.479-1.071,1.071-1.071
				h118.843c0.591,0,1.071,0.479,1.071,1.071l0,0C363.152,293.572,362.673,294.051,362.082,294.051z"/>
		</g>
		<g>
			<g>
				<path style="opacity:0.2;" d="M329.141,317.538h-6.996c-0.253,0-0.457-0.205-0.457-0.457v-6.996
					c0-0.253,0.205-0.457,0.457-0.457h6.996c0.253,0,0.457,0.205,0.457,0.457v6.996
					C329.598,317.333,329.393,317.538,329.141,317.538z"/>
				<g>
					<line style="fill:none;stroke:#FFFFFF;stroke-miterlimit:10;" x1="325.642" y1="311.618" x2="325.642" y2="315.547"/>
					<line style="fill:none;stroke:#FFFFFF;stroke-miterlimit:10;" x1="327.607" y1="313.583" x2="323.678" y2="313.583"/>
				</g>
			</g>
			<g>
				<path style="opacity:0.2;" d="M283.176,317.538h-6.996c-0.253,0-0.457-0.205-0.457-0.457v-6.996
					c0-0.253,0.205-0.457,0.457-0.457h6.996c0.253,0,0.457,0.205,0.457,0.457v6.996
					C283.633,317.333,283.428,317.538,283.176,317.538z"/>
				<g>
					<line style="fill:none;stroke:#FFFFFF;stroke-miterlimit:10;" x1="279.678" y1="311.618" x2="279.678" y2="315.547"/>
					<line style="fill:none;stroke:#FFFFFF;stroke-miterlimit:10;" x1="281.642" y1="313.583" x2="277.713" y2="313.583"/>
				</g>
			</g>
		</g>
		<path style="fill:#407BFF;" d="M361.911,346.085H243.409c-1.941,0-3.514-1.573-3.514-3.514v-11.973
			c0-1.941,1.573-3.514,3.514-3.514h118.502c1.941,0,3.514,1.573,3.514,3.514v11.973
			C365.425,344.512,363.852,346.085,361.911,346.085z"/>
		<g>
			<path style="fill:#FFFFFF;" d="M281.45,336.628c0-2.355,1.815-4.113,4.286-4.113c2.447,0,4.263,1.746,4.263,4.113
				s-1.815,4.113-4.263,4.113C283.265,340.741,281.45,338.983,281.45,336.628z M288.849,336.628c0-1.781-1.333-3.091-3.114-3.091
				c-1.804,0-3.137,1.31-3.137,3.091c0,1.781,1.333,3.091,3.137,3.091C287.516,339.719,288.849,338.409,288.849,336.628z"/>
			<path style="fill:#FFFFFF;" d="M297.128,340.649l-1.735-2.471c-0.161,0.012-0.333,0.023-0.505,0.023H292.9v2.447h-1.149v-8.043
				h3.137c2.091,0,3.355,1.058,3.355,2.804c0,1.241-0.644,2.137-1.77,2.539l1.907,2.7H297.128z M297.094,335.41
				c0-1.149-0.77-1.804-2.241-1.804H292.9v3.619h1.953C296.324,337.226,297.094,336.559,297.094,335.41z"/>
			<path style="fill:#FFFFFF;" d="M300.1,332.606h3.389c2.585,0,4.343,1.632,4.343,4.021c0,2.39-1.758,4.022-4.343,4.022H300.1
				V332.606z M303.42,339.649c1.988,0,3.263-1.218,3.263-3.022s-1.275-3.021-3.263-3.021h-2.171v6.043H303.42z"/>
			<path style="fill:#FFFFFF;" d="M315.422,339.649v1h-5.837v-8.043h5.676v1h-4.527v2.47h4.033v0.977h-4.033v2.597H315.422z"/>
			<path style="fill:#FFFFFF;" d="M322.656,340.649l-1.735-2.471c-0.161,0.012-0.333,0.023-0.505,0.023h-1.988v2.447h-1.149v-8.043
				h3.137c2.091,0,3.355,1.058,3.355,2.804c0,1.241-0.644,2.137-1.77,2.539l1.907,2.7H322.656z M322.622,335.41
				c0-1.149-0.77-1.804-2.241-1.804h-1.953v3.619h1.953C321.852,337.226,322.622,336.559,322.622,335.41z"/>
		</g>
		<path style="opacity:0.2;fill:#FFFFFF;enable-background:new    ;" d="M362.006,181.273c0.781,4.888-0.318,10.116-3.151,14.154
			c-5.303,7.559-14.812,10.097-21.203,16.445c-5.795,5.756-8.794,14.938-16.85,18.158c-3.677,1.47-7.819,1.285-11.703,0.513
			c-8.425-1.675-15.979-5.903-23.618-9.632c-10.179-4.969-21.973-7.147-31.727-12.749c-4.482-2.574-8.429-6.452-10.017-11.371
			c-3.378-10.462,3.925-20.699,11.601-27.006c5.752-4.726,12.401-8.672,17.191-14.468c4.41-5.335,6.231-12.489,11.307-17.315
			c4.116-3.913,9.987-5.641,15.665-5.505c15.636,0.373,22.567,10.142,31.623,21.02c7.503,9.012,20.818,10.624,27.749,20.092
			C360.53,175.873,361.566,178.519,362.006,181.273z"/>
		<g>
			<g>
				<path style="fill:#263238;" d="M312.275,161.305l-3.029,41.463c0,0,10.979,7.509,23.283,4.319l11.926-37.4
					C344.455,169.687,336.694,157.707,312.275,161.305z"/>
				<path style="fill:#263238;" d="M311.896,159.855l-0.315,4.425c0,0,9.402,8.826,32.496,8.195l2.145-4.922
					C346.222,167.553,332.447,154.006,311.896,159.855z"/>
				<path style="opacity:0.8;fill:#FFFFFF;enable-background:new    ;" d="M311.896,159.855l-0.315,4.425
					c0,0,9.402,8.826,32.496,8.195l2.145-4.922C346.222,167.553,332.447,154.006,311.896,159.855z"/>
				<path style="opacity:0.2;" d="M345.343,167.616c-13.963,1.876-25.963-3.407-30.595-5.838c0,0-0.01-0.01-0.019-0.019
					c-1.302-0.68-2.01-1.129-2.01-1.129c0.402-0.115,0.804-0.22,1.196-0.316c2.077-0.517,4.077-0.823,5.991-0.967
					c7.522-0.574,13.762,1.378,18.173,3.531C342.721,165.137,345.343,167.616,345.343,167.616z"/>
				<path style="fill:#407BFF;" d="M351.525,151.72c-0.507,4.661-0.699,11.666-6.182,15.896c-5.484,0.737-10.661,0.373-15.207-0.498
					c-3.158-0.593-6-1.435-8.441-2.316c-3.014-1.072-5.397-2.211-6.947-3.024c0,0-0.01-0.01-0.019-0.019
					c-0.077-0.124-0.479-0.727-0.814-1.445c-0.536-1.129-0.909-2.536,0.383-2.794c2.201-0.44,1.742-0.689,1.598-1.77
					c-0.153-1.072,0.287-2.201,0.737-1.129c0.44,1.072,0.076,3.484,0.565,3.771c0.478,0.277,2.89-1.129,2.708,0.957
					c-0.077,0.9-0.124,1.799,0.067,2.536c0.029,0.096,0.057,0.191,0.096,0.287c0,0.029,0,0.048,0.019,0.067
					c0.306,0.775,0.966,1.311,2.287,1.388c2.641,0.144,4.431-1.493,7.13-2.258c2.689-0.756,5.924-0.574,6.431,2.268
					c0.507,2.842,2.775,1.809,2.268-0.163c-0.048-0.191-0.086-0.392-0.124-0.593c-0.325-1.943-0.086-4.354,0.947-3.091
					c1.139,1.388-0.44,1.771,0.44,2.651c0.89,0.89,2.153-0.593,2.594-3.196c0.44-2.603,2.459-8.288,0-11.436
					c-2.46-3.158-1.646-3.79,0-3.407c1.636,0.373,0.756,3.215,2.392,4.038c1.646,0.814,2.143-3.349,1.263-5.369
					c-0.88-2.019-2.019-5.426,0.507-4.986c2.526,0.44,1.952,3.79,1.952,6c0,2.201,0.632,3.656,1.388,2.833
					c0.278-0.297,0.67-0.354,1.043-0.086c0.01,0,0.01,0,0.01,0C351.267,147.289,351.841,148.753,351.525,151.72z"/>
				<g>
					<polygon style="fill:#407BFF;" points="327.25,148.781 330.783,145.752 334.885,148.781 334.885,152.819 331.351,154.144 
						327.25,152.365 					"/>
					<polygon style="opacity:0.8;fill:#FFFFFF;enable-background:new    ;" points="327.25,148.781 330.783,145.752 
						334.885,148.781 334.885,152.819 331.351,154.144 327.25,152.365 					"/>
					<polygon style="opacity:0.5;fill:#FFFFFF;enable-background:new    ;" points="330.783,145.752 330.783,150.716 
						334.885,152.819 334.885,148.781 					"/>
				</g>
				<path style="opacity:0.2;" d="M350.607,146.83c-0.89,0.574-1.656,1.933-1.771,3.78c-0.201,3.484-1.321,3.35-3.493,1.876
					c-2.172-1.474-1.426,1.751-0.89,8.144c0.536,6.393-5.263,7.378-7.819,6.498c-2.555-0.89-0.478-1.627-2.086-2.622
					c-1.397-0.861-1.187,2.124-4.412,2.613c-0.488,0.067-1.062,0.077-1.742,0.01c-3.148-0.325-5.311-1.053-6.699-2.326
					c-0.756-0.689-1.282-1.541-1.608-2.565c0.306,0.775,0.966,1.311,2.287,1.388c2.641,0.144,4.431-1.493,7.13-2.258
					c2.689-0.756,5.924-0.574,6.431,2.268c0.507,2.842,2.775,1.809,2.268-0.163c-0.048-0.191-0.086-0.392-0.124-0.593
					c-0.325-1.943-0.086-4.354,0.947-3.091c1.139,1.388-0.44,1.771,0.44,2.651c0.89,0.89,2.153-0.593,2.594-3.196
					c0.44-2.603,2.459-8.288,0-11.436c-2.46-3.158-1.646-3.79,0-3.407c1.636,0.373,0.756,3.215,2.392,4.038
					c1.646,0.814,2.143-3.349,1.263-5.369c-0.88-2.019-2.019-5.426,0.507-4.986c2.526,0.44,1.952,3.79,1.952,6
					c0,2.201,0.632,3.656,1.388,2.833C349.841,146.619,350.233,146.562,350.607,146.83z"/>
				<g>
					<polygon style="fill:#407BFF;" points="325.262,164.669 322.099,163.979 322.059,160.434 324.299,158.739 326.516,160.144 
						327.25,163.165 					"/>
					<polygon style="opacity:0.8;fill:#FFFFFF;enable-background:new    ;" points="325.262,164.669 322.099,163.979 
						322.059,160.434 324.299,158.739 326.516,160.144 327.25,163.165 					"/>
					<polygon style="opacity:0.5;fill:#FFFFFF;enable-background:new    ;" points="322.099,163.979 324.853,161.897 
						324.299,158.739 322.059,160.434 					"/>
				</g>
				<path style="opacity:0.8;fill:#FFFFFF;enable-background:new    ;" d="M331.067,178.101c9.476,0,8.719,17.975-2.639,17.942
					C317.07,196.01,320.366,178.101,331.067,178.101z"/>
				<path style="opacity:0.2;" d="M330.816,179.51c7.987,0,7.349,15.151-2.225,15.124
					C319.018,194.606,321.797,179.51,330.816,179.51z"/>
			</g>
			<g>
				<g>
					<path style="fill:#263238;" d="M254.3,208.388c0,0-2.65,4.259-2.65,5.395c0,1.136,1.988,6.72,3.313,7.95
						c1.325,1.23,17.226,5.016,36.629,2.082c19.403-2.934,24.798-11.926,25.744-14.102s0.628-10.516-1.462-10.887
						C313.782,198.456,257.991,205.454,254.3,208.388z"/>
					<path style="opacity:0.5;fill:#FFFFFF;enable-background:new    ;" d="M317.337,209.718
						c-0.947,2.172-6.345,11.168-25.743,14.096c-19.408,2.938-35.303-0.852-36.633-2.077c-1.321-1.234-3.311-6.814-3.311-7.953
						c0-0.364,0.268-1.034,0.622-1.79c0.794-1.617,2.029-3.608,2.029-3.608c3.694-2.928,59.487-9.934,61.573-9.56
						c0.651,0.115,1.129,0.995,1.445,2.22C318.035,203.775,317.988,208.215,317.337,209.718z"/>
					<path style="opacity:0.2;" d="M317.318,201.047c-1.904,3.129-8.393,10.527-26.49,13.13
						c-20.365,2.938-37.055-0.852-38.442-2.077c-0.038-0.029-0.077-0.067-0.115-0.105c0.794-1.617,2.029-3.608,2.029-3.608
						c3.694-2.928,59.487-9.934,61.573-9.56C316.524,198.942,317.002,199.822,317.318,201.047z"/>
				</g>
				<path style="fill:#407BFF;" d="M253.637,208.247c-2.082-0.142-3.123,1.467-1.893,2.508c1.23,1.041,3.502,0.189,3.597,2.271
					c0.095,2.082,0.189,4.732,1.42,3.313c1.23-1.42,0.095-3.029,3.407-2.461c2.017,0.346,4.655,1.622,6.602,0.335
					c0.349-0.231,0.641-0.545,1.003-0.756c0.375-0.218,0.807-0.314,1.214-0.464c0.561-0.206,1.077-0.517,1.589-0.825
					c0.659-0.397,1.402-0.94,1.375-1.709c-0.025-0.689-0.712-1.201-1.396-1.291c-0.684-0.09-1.365,0.13-2.029,0.312
					c-0.672,0.184-1.354,0.332-2.042,0.447c-1.253,0.21-2.369-0.347-3.596-0.558c-1.431-0.246-2.869-0.449-4.31-0.624
					C256.935,208.546,255.287,208.371,253.637,208.247z"/>
				<path style="fill:#407BFF;" d="M272.756,210.849c0,0,5.206,4.164,7.288,4.07c2.082-0.095,2.605-0.284,3.385,0.852
					c0.78,1.136,4.314,3.502,4.819,1.136c0.504-2.366,2.397-3.597,3.628-3.218c1.23,0.379,3.597,0.974,4.544-0.745
					c0.45-0.815,0.747-1.072,1.584-1.386c0.626-0.234,1.269-0.487,1.9-0.7c0.773-0.261,1.701-0.135,2.426-0.547
					c0.829-0.471,1.142-1.486,1.699-2.26c0.578-0.804,1.472-1.375,2.445-1.561c0.822-0.157,1.671-0.048,2.505-0.12
					c0.834-0.072,1.727-0.387,2.136-1.117c0.361-0.643,0.262-1.455,0.553-2.132c0.395-0.919,1.563-1.418,2.5-1.068
					c0.278,0.104,0.548,0.273,0.844,0.256c0.684-0.04,1.307-1.03,1.841-0.6c0.416,0.335,0.281,1.095,0.932,1.379
					c0.063-1.096,0.034-2.206,0.045-3.305c0.004-0.387,0.001-0.799-0.209-1.125c-1.176-1.826-2.196-2.497-4.461-2.581
					c-2.171-0.08-4.503-0.1-6.309,1.109c-1.772,1.187-2.662,3.316-4.216,4.777c-0.859,0.808-1.9,1.391-2.943,1.943
					c-2.653,1.403-5.392,2.668-8.198,3.734c-2.55,0.969-5.758,0.958-8.476,1.398C279.589,209.59,276.165,210.184,272.756,210.849z"
					/>
				<path style="fill:#263238;" d="M316.131,200.425c-0.344,1.359-1.656,2.326-2.737,3.101c-0.335,0.239-0.67,0.488-1.005,0.727
					c-0.641,0.45-1.292,0.919-2.029,1.187c-0.737,0.268-1.531,0.335-2.306,0.44c-3.149,0.44-6.182,1.646-8.776,3.474
					c-0.699,0.498-1.407,1.053-2.249,1.206c-0.737,0.134-1.493-0.057-2.239-0.067c-0.746-0.019-1.598,0.211-1.933,0.89
					c-0.095,0.201-0.143,0.45-0.316,0.603c-0.153,0.144-0.383,0.172-0.593,0.201c-2.488,0.316-4.996,0.488-7.493,0.498
					c-2.555,0.01-5.11-0.134-7.656-0.278c-1.655-0.096-3.311-0.191-4.957-0.287c-0.823-0.048-1.656-0.096-2.469,0.01
					c-0.794,0.105-1.57,0.354-2.354,0.507c-0.967,0.172-1.952,0.201-2.928,0.23c-0.995,0.029-2,0.048-2.996,0.077
					c-2.603,0.067-4.842-1.234-7.245-2.163c-0.297-0.115-0.603-0.239-0.813-0.479c-0.584-0.679,0-1.79-0.325-2.632
					c-0.077-0.201-0.201-0.383-0.23-0.593c-0.029-0.297,0.134-0.555,0.239-0.833c0.038-0.096,0.067-0.191,0.086-0.287
					c0.048-0.411-0.182-0.794-0.326-1.177c-0.153-0.402-0.21-0.833-0.23-1.263c-0.009-0.239-0.009-0.488,0.019-0.718
					c0.029-0.182,0.077-0.354,0.163-0.517c0.479-0.966,2.708-0.919,3.665-1.158c6.852-1.761,13.857-2.986,20.824-4.22
					c8.154-1.455,16.336-2.785,24.547-3.952c3.005-0.421,6.02-0.833,9.043-1.148c0.957-0.096,2.153-0.402,3.177-0.268
					c0.546,0.067,1.043,0.258,1.435,0.67c0.105,0.105,0.201,0.22,0.258,0.354c0.172,0.392-0.01,0.852-0.115,1.273
					c-0.153,0.651-0.105,1.33-0.048,2c0.019,0.335,0.057,0.679,0.239,0.957c0.115,0.172,0.296,0.316,0.383,0.507
					c0.182,0.44-0.057,1.053,0.029,1.531C315.988,199.449,316.322,199.679,316.131,200.425z"/>
				<path style="opacity:0.2;" d="M314.552,195.717c-0.335,1.368-1.646,2.335-2.737,3.11c-0.335,0.239-0.67,0.479-1.005,0.718
					c-0.641,0.459-1.292,0.919-2.029,1.187c-0.737,0.277-1.531,0.335-2.306,0.45c-3.148,0.44-6.182,1.636-8.776,3.474
					c-0.699,0.498-1.397,1.053-2.249,1.206c-0.737,0.134-1.483-0.057-2.24-0.077c-0.746-0.019-1.598,0.22-1.933,0.89
					c-0.096,0.21-0.144,0.45-0.316,0.603c-0.153,0.144-0.383,0.182-0.593,0.21c-2.488,0.316-4.986,0.479-7.493,0.498
					c-2.555,0.01-5.11-0.134-7.656-0.287c-1.656-0.096-3.302-0.191-4.957-0.287c-0.823-0.048-1.656-0.086-2.469,0.019
					c-0.794,0.105-1.56,0.354-2.354,0.498c-0.957,0.182-1.943,0.211-2.928,0.23c-0.995,0.029-2,0.057-2.995,0.086
					c-2.431,0.067-4.565-1.081-6.795-2c0.038-0.096,0.067-0.191,0.086-0.287c0.048-0.411-0.182-0.794-0.326-1.177
					c-0.153-0.402-0.21-0.833-0.23-1.263c-0.009-0.239-0.009-0.488,0.019-0.718c0.029-0.182,0.077-0.354,0.163-0.517
					c0.479-0.966,2.708-0.919,3.665-1.158c6.852-1.761,13.857-2.986,20.824-4.22c8.154-1.455,16.336-2.785,24.547-3.952
					c3.005-0.421,6.02-0.833,9.043-1.148c0.957-0.096,2.153-0.402,3.177-0.268c0.029,0.201,0.086,0.383,0.191,0.546
					c0.125,0.182,0.297,0.316,0.383,0.517c0.191,0.431-0.048,1.053,0.038,1.522C314.418,194.741,314.743,194.97,314.552,195.717z"/>
				<path style="fill:#407BFF;" d="M250.798,201.054c-0.399,1.073,7.856,11.972,7.856,11.972s11.831-9.37,19.876-10.695
					c8.045-1.325,34.641,0.095,34.641,0.095s1.553-9.282,1.297-11.51C314.212,188.687,255.246,189.082,250.798,201.054z"/>
				<path style="opacity:0.7;fill:#FFFFFF;enable-background:new    ;" d="M250.798,201.054c-0.399,1.073,7.856,11.972,7.856,11.972
					s11.831-9.37,19.876-10.695c8.045-1.325,34.641,0.095,34.641,0.095s1.553-9.282,1.297-11.51
					C314.212,188.687,255.246,189.082,250.798,201.054z"/>
				<path style="fill:#407BFF;" d="M258.416,200.344l2.596,5.511c0,0,5.498-1.966,7.391,0c1.893,1.966,1.893,3.859,1.893,3.859
					s1.406-6.152,3.827-4.685c2.42,1.467,4.503,3.738,4.503,3.738s3.407-5.584,6.436-3.738c3.029,1.845,3.029,1.845,3.029,1.845
					s2.461-5.582,6.247-5.82c3.786-0.238,5.355,0.331,5.679-0.71c0.323-1.042,8.897-6.99,12.872-6.761
					c3.975,0.229,3.975,0.229,3.975,0.229s0.757-5.3,3.029-5.3c0,0-4.543-2.637-4.448-5.901c0.036-1.254-2.934,1.86-5.016,0
					c-2.082-1.86-61.785,10.093-61.785,10.093s0.453-0.486-2.387,0.879c-2.84,1.365,1.136,1.014,0,3.935
					c-1.136,2.92,4.164-0.171,5.679,1.943C253.448,201.574,258.416,200.344,258.416,200.344z"/>
				<path style="opacity:0.5;fill:#FFFFFF;enable-background:new    ;" d="M258.416,200.344l2.596,5.511c0,0,5.498-1.966,7.391,0
					c1.893,1.966,1.893,3.859,1.893,3.859s1.406-6.152,3.827-4.685c2.42,1.467,4.503,3.738,4.503,3.738s3.407-5.584,6.436-3.738
					c3.029,1.845,3.029,1.845,3.029,1.845s2.461-5.582,6.247-5.82c3.786-0.238,5.355,0.331,5.679-0.71
					c0.323-1.042,8.897-6.99,12.872-6.761c3.975,0.229,3.975,0.229,3.975,0.229s0.757-5.3,3.029-5.3c0,0-4.543-2.637-4.448-5.901
					c0.036-1.254-2.934,1.86-5.016,0c-2.082-1.86-61.785,10.093-61.785,10.093s0.453-0.486-2.387,0.879
					c-2.84,1.365,1.136,1.014,0,3.935c-1.136,2.92,4.164-0.171,5.679,1.943C253.448,201.574,258.416,200.344,258.416,200.344z"/>
				<path style="fill:#407BFF;" d="M273.449,199.803c-4.287,6.622-23.724,8.268-25.217,2.632c-0.364-1.378-0.402-2.603-0.239-3.656
					c0.459-3.244,2.737-4.909,2.737-4.909c8.115-4.22,21.178-1.952,23.14,2.67C274.291,197.535,274.205,198.636,273.449,199.803z"/>
				<path style="opacity:0.2;" d="M273.87,196.54c-0.105,0.268-0.249,0.536-0.421,0.804c-4.287,6.622-23.724,8.269-25.217,2.632
					c-0.115-0.411-0.191-0.813-0.239-1.196c0.459-3.244,2.737-4.909,2.737-4.909C258.846,189.649,271.908,191.917,273.87,196.54z"/>
				<path style="fill:#407BFF;" d="M313.795,195.868c-4.287,6.622-23.724,8.268-25.217,2.632c-0.364-1.378-0.402-2.603-0.239-3.656
					c0.459-3.244,2.737-4.909,2.737-4.909c8.115-4.22,21.178-1.952,23.14,2.67C314.637,193.6,314.551,194.701,313.795,195.868z"/>
				<path style="opacity:0.2;" d="M314.216,192.605c-0.105,0.268-0.249,0.536-0.421,0.804c-4.287,6.622-23.724,8.268-25.217,2.632
					c-0.115-0.411-0.191-0.813-0.239-1.196c0.459-3.244,2.737-4.909,2.737-4.909C299.191,185.715,312.254,187.983,314.216,192.605z"
					/>
				<path style="fill:#263238;" d="M279.828,164.283c20.386-1.704,38.02,16.065,34.086,25.258
					c-3.933,9.193-59.107,16.992-64.295,6.467C244.43,185.484,258.392,166.074,279.828,164.283z"/>
				<path style="opacity:0.5;fill:#FFFFFF;enable-background:new    ;" d="M279.828,164.283
					c20.386-1.704,38.02,16.065,34.086,25.258c-3.933,9.193-59.107,16.992-64.295,6.467
					C244.43,185.484,258.392,166.074,279.828,164.283z"/>
				<g>
					<path style="opacity:0.2;fill:#FFFFFF;enable-background:new    ;" d="M278.34,175.761c0,0-0.946,2.34,0,2.34
						C279.287,178.101,278.34,175.761,278.34,175.761z"/>
					<path style="opacity:0.2;fill:#FFFFFF;enable-background:new    ;" d="M285.818,172.99c0,0,1.704,2.271,1.798,1.23
						C287.711,173.18,285.818,172.99,285.818,172.99z"/>
					<path style="opacity:0.2;fill:#FFFFFF;enable-background:new    ;" d="M274.649,172.138c0,0-2.556,0.473-1.893,1.136
						C273.419,173.937,274.649,172.138,274.649,172.138z"/>
					<path style="opacity:0.2;fill:#FFFFFF;enable-background:new    ;" d="M266.509,174.978c0,0-1.893,0.148-1.609,0.784
						C265.184,176.398,266.509,174.978,266.509,174.978z"/>
					<path style="opacity:0.2;fill:#FFFFFF;enable-background:new    ;" d="M271.336,167.217c0,0-2.082-0.284-2.082,0.378
						C269.254,168.258,271.336,167.217,271.336,167.217z"/>
					<path style="opacity:0.2;fill:#FFFFFF;enable-background:new    ;" d="M278.761,168.352c0,0-0.326,1.798,0.431,1.609
						C279.949,169.772,278.761,168.352,278.761,168.352z"/>
					<path style="opacity:0.2;fill:#FFFFFF;enable-background:new    ;" d="M290.672,169.975c0,0,1.676,0.771,1.676,0
						S290.672,169.975,290.672,169.975z"/>
					<path style="opacity:0.2;fill:#FFFFFF;enable-background:new    ;" d="M284.794,166.081c0,0,0.929-1.041,1.402-0.757
						S284.794,166.081,284.794,166.081z"/>
					<path style="opacity:0.2;fill:#FFFFFF;enable-background:new    ;" d="M276.447,166.081c1.041-0.189,0.473,1.075,0.473,1.075
						S275.406,166.27,276.447,166.081z"/>
					<path style="opacity:0.2;fill:#FFFFFF;enable-background:new    ;" d="M270.295,179.805c0,0-1.23,0.757-1.041,1.325
						C269.443,181.698,270.295,179.805,270.295,179.805z"/>
					<path style="opacity:0.2;fill:#FFFFFF;enable-background:new    ;" d="M296.513,175.452c0,0,2.082,0.783,1.325,1.48
						C297.081,177.628,296.513,175.452,296.513,175.452z"/>
					<path style="opacity:0.2;fill:#FFFFFF;enable-background:new    ;" d="M284.794,181.236c0,0,0.586,1.153,0,1.375
						C284.208,182.833,284.794,181.236,284.794,181.236z"/>
				</g>
				<path style="opacity:0.2;" d="M313.911,189.544c-3.933,9.187-59.104,16.987-64.291,6.46c-0.564-1.148-0.899-2.402-1.024-3.723
					c0.115,0.316,0.249,0.622,0.393,0.919c5.187,10.527,60.358,2.728,64.291-6.469c0.469-1.091,0.632-2.306,0.526-3.598
					C314.619,185.467,314.705,187.678,313.911,189.544z"/>
			</g>
		</g>
	</g>
</g>
<g id="Plant">
	<g>
		<path style="fill:#407BFF;" d="M390.573,390.877c0,0-5.649-12.326,0.805-24.477c6.455-12.151,8.326-15.013,4.211-17.502
			c-4.115-2.489-6.002,9.72-6.002,9.72s-3.469-8.4-0.605-17.19c2.864-8.791,4.66-23.108,0.749-24.644
			c-3.911-1.536-0.747,17.861-4.14,24.473c0,0-2.85-7.361-3.319-14.421c-0.469-7.061,0.264-18.335-2.825-21.227
			c-3.089-2.892-5.067-0.891-2.032,14.69c3.035,15.582,3.013,28.247,3.013,28.247s-6.703-20.439-11.203-21.035
			c-4.499-0.596-4.493,6.023-0.642,11.764c3.851,5.741,11.278,16.026,12.496,21.319c0,0-7.358-15.381-13.977-10.667
			c-6.619,4.714,5.761,14.005,11.279,17.362c5.518,3.357,9.35,24.401,9.35,24.401L390.573,390.877z"/>
		<path style="opacity:0.2;enable-background:new    ;" d="M390.573,390.877c0,0-5.649-12.326,0.805-24.477
			c6.455-12.151,8.326-15.013,4.211-17.502c-4.115-2.489-6.002,9.72-6.002,9.72s-3.469-8.4-0.605-17.19
			c2.864-8.791,4.66-23.108,0.749-24.644c-3.911-1.536-0.747,17.861-4.14,24.473c0,0-2.85-7.361-3.319-14.421
			c-0.469-7.061,0.264-18.335-2.825-21.227c-3.089-2.892-5.067-0.891-2.032,14.69c3.035,15.582,3.013,28.247,3.013,28.247
			s-6.703-20.439-11.203-21.035c-4.499-0.596-4.493,6.023-0.642,11.764c3.851,5.741,11.278,16.026,12.496,21.319
			c0,0-7.358-15.381-13.977-10.667c-6.619,4.714,5.761,14.005,11.279,17.362c5.518,3.357,9.35,24.401,9.35,24.401L390.573,390.877z"
			/>
		<path style="fill:#407BFF;" d="M386.113,395.932c0,0,5.501-12.409-1.099-24.462c-6.6-12.053-8.505-14.887-4.42-17.438
			c4.084-2.551,6.118,9.63,6.118,9.63s3.367-8.451,0.398-17.198c-2.969-8.747-4.936-23.037-1.044-24.631
			c3.892-1.594,0.961,17.849,4.433,24.409c0,0,2.762-7.402,3.146-14.469c0.384-7.067-0.483-18.329,2.57-21.267
			c3.053-2.938,5.056-0.967,2.208,14.659c-2.848,15.625-2.674,28.29-2.674,28.29s6.458-20.537,10.949-21.201
			c4.492-0.663,4.565,5.956,0.783,11.754c-3.782,5.798-11.085,16.193-12.239,21.503c0,0,7.173-15.49,13.848-10.875
			c6.675,4.615-5.593,14.09-11.07,17.529c-5.477,3.439-9.056,24.538-9.056,24.538L386.113,395.932z"/>
		<g>
			<polygon style="fill:#263238;" points="411.485,387.086 366.042,387.086 369.72,419.605 407.807,419.605 			"/>
		</g>
	</g>
</g>
<g id="Character">
	<g>
		<g>
			<g>
				<path style="fill:#263238;" d="M214.564,403.782h51.12c5.449,0,9.867-4.418,9.867-9.867v-40.192
					c0-5.449-4.418-9.867-9.867-9.867h-51.121c-5.449,0-9.867,4.418-9.867,9.867v40.191
					C204.697,399.365,209.114,403.782,214.564,403.782z"/>
				<path style="opacity:0.1;fill:#FFFFFF;enable-background:new    ;" d="M214.564,403.782h51.12c5.449,0,9.867-4.418,9.867-9.867
					v-40.192c0-5.449-4.418-9.867-9.867-9.867h-51.121c-5.449,0-9.867,4.418-9.867,9.867v40.191
					C204.697,399.365,209.114,403.782,214.564,403.782z"/>
				<path style="opacity:0.2;fill:#FFFFFF;enable-background:new    ;" d="M265.684,403.782L265.684,403.782
					c5.449,0,9.867-4.418,9.867-9.867v-40.191c0-5.449-4.418-9.867-9.867-9.867l0,0c-5.449,0-9.867,4.418-9.867,9.867v40.191
					C255.817,399.365,260.235,403.782,265.684,403.782z"/>
			</g>
			<g>
				<g>
					<path style="fill:#263238;" d="M204.865,363.75H100.491l-15.905-82.139c-1.739-8.979,5.14-17.318,14.286-17.318h74.73
						c6.97,0,12.961,4.942,14.286,11.785L204.865,363.75z"/>
				</g>
				<g style="opacity:0.1;enable-background:new    ;">
					<path style="fill:#FFFFFF;" d="M204.865,363.75H100.491l-15.905-82.139c-1.739-8.979,5.14-17.318,14.286-17.318h74.73
						c6.97,0,12.961,4.942,14.286,11.785L204.865,363.75z"/>
				</g>
				<path style="opacity:0.2;fill:#FFFFFF;enable-background:new    ;" d="M204.869,363.593h-74.734l-16.974-87.591
					c-0.671-3.42-2.495-6.323-5.033-8.419c-2.529-2.088-5.771-3.284-9.259-3.284h74.734c6.967,0,12.959,4.867,14.283,11.707
					L204.869,363.593z"/>
			</g>
		</g>
		<g>
			<path style="fill:#CE7A63;" d="M202.428,305.675c-0.785-2.46-1.818-4.479-2.948-6.412c-1.148-1.943-2.373-3.684-3.837-5.445
				c-0.814-0.976-2.125-1.493-3.464-1.215c-1.924,0.402-3.149,2.287-2.756,4.211l0.048,0.22c0.325,1.55,0.689,3.148,1.014,4.708
				c-1.177-1.244-2.354-2.546-3.522-3.876c-2.565-2.909-5.158-6-7.646-8.929l-0.086-0.096c-1.531-1.79-3.79-2.632-5.991-2.431
				c-0.354,0.029-0.708,0.096-1.053,0.182c-0.899,0.22-1.78,0.632-2.565,1.234c-3.081,2.364-3.675,6.776-1.311,9.857
				c1.368,1.79,2.766,3.493,4.201,5.158c1.321,1.531,2.689,3.034,4.105,4.527c1.483,1.541,3.015,3.062,4.641,4.565
				c0.498,0.45,1.005,0.9,1.522,1.349c1.196,1.033,2.46,2.057,3.914,3.081c1.081,0.727,2.201,1.464,3.943,2.201
				c0.22,0.096,0.449,0.182,0.718,0.277c0.249,0.086,0.536,0.172,0.842,0.258c0.277,0.077,0.67,0.163,1.014,0.22
				c0.191,0.029,0.421,0.057,0.622,0.077c0.201,0.019,0.421,0.038,0.689,0.038c0.258,0,0.479,0,0.766-0.019
				c0.287-0.019,0.584-0.057,0.871-0.105c0.469-0.096,0.775-0.172,1.215-0.325c0.794-0.258,1.694-0.718,2.469-1.311
				c1.636-1.206,2.593-2.976,2.957-4.278c0.411-1.359,0.44-2.402,0.431-3.321C203.174,308.258,202.829,306.928,202.428,305.675z"/>
			<path style="opacity:0.1;" d="M202.428,305.675c-0.785-2.46-1.818-4.479-2.948-6.412c-1.148-1.943-2.373-3.684-3.837-5.445
				c-0.814-0.976-2.125-1.493-3.464-1.215c-1.924,0.402-3.149,2.287-2.756,4.211l0.048,0.22c0.325,1.55,0.689,3.148,1.014,4.708
				c-1.177-1.244-2.354-2.546-3.522-3.876c-2.565-2.909-5.158-6-7.646-8.929l-0.086-0.096c-1.531-1.79-3.79-2.632-5.991-2.431
				c-0.354,0.029-0.708,0.096-1.053,0.182c-0.899,0.22-1.78,0.632-2.565,1.234c-3.081,2.364-3.675,6.776-1.311,9.857
				c1.024,1.34,2.067,2.632,3.129,3.905c0,0,0,0,0.009,0.01c0.354,0.411,0.708,0.833,1.062,1.244
				c1.321,1.531,2.689,3.034,4.105,4.527c1.483,1.541,3.015,3.062,4.641,4.565c0.45,0.411,0.919,0.823,1.388,1.234
				c0.038,0.038,0.086,0.077,0.134,0.115c1.196,1.033,2.46,2.057,3.914,3.081c1.081,0.727,2.201,1.464,3.943,2.201
				c0.22,0.096,0.449,0.182,0.718,0.277c0.249,0.086,0.536,0.172,0.842,0.258c0.277,0.077,0.67,0.163,1.014,0.22
				c0.191,0.029,0.421,0.057,0.622,0.077c0.201,0.019,0.421,0.038,0.689,0.038c0.258,0,0.479,0,0.766-0.019
				c0.287-0.019,0.584-0.057,0.871-0.105c0.469-0.096,0.775-0.172,1.215-0.325c0.794-0.258,1.694-0.718,2.469-1.311
				c1.636-1.206,2.593-2.976,2.957-4.278c0.411-1.359,0.44-2.402,0.431-3.321C203.174,308.258,202.829,306.928,202.428,305.675z"/>
			<path style="fill:#CE7A63;" d="M188.468,296.041l-0.577-2.929c-0.21-1.066-0.137-2.169,0.211-3.198l0.656-1.94
				c0.434-1.285,1.724-2.077,3.067-1.883l2.027,0.293c1.552,0.224,2.621,1.675,2.377,3.224l-0.271,1.716
				c0,0-0.173,4.855-2.628,7.843l-1.062-0.225C190.539,298.576,189.142,297.51,188.468,296.041z"/>
			<path style="opacity:0.1;" d="M188.468,296.041l-0.577-2.929c-0.21-1.066-0.137-2.169,0.211-3.198l0.656-1.94
				c0.434-1.285,1.724-2.077,3.067-1.883l2.027,0.293c1.552,0.224,2.621,1.675,2.377,3.224l-0.271,1.716
				c0,0-0.173,4.855-2.628,7.843l-1.062-0.225C190.539,298.576,189.142,297.51,188.468,296.041z"/>
			<path style="opacity:0.2;" d="M182.647,313.168c-0.469-0.411-0.938-0.823-1.388-1.234c-1.627-1.503-3.158-3.024-4.641-4.565
				c-1.416-1.493-2.785-2.995-4.105-4.527c-0.354-0.411-0.708-0.833-1.062-1.244c-0.009-0.01-0.009-0.01-0.009-0.01
				c-0.402-4.574-0.354-8.546,0.354-10.575c0.067-0.201,0.144-0.373,0.22-0.536c0,0,0.316,0.105,0.833,0.354
				C175.565,292.133,183.029,296.306,182.647,313.168z"/>
			<path style="fill:#407BFF;" d="M177.677,290.763c0.544,3.335,7.351,9.89,1.834,15.659c1.764,2.439,6.577,20.469,4.819,24.237
				c-3.011,3.352-22.357,6.85-38.753,8.067c-2.047-6.455-1.26-20.872-10.143-41.249c-2.059-4.724,2.179-11.677,11.647-15.258
				c3.071-1.162,8.102-1.829,13.108-0.855C164.836,282.267,176.703,284.787,177.677,290.763z"/>
			<path style="opacity:0.7;fill:#FFFFFF;enable-background:new    ;" d="M184.331,330.662c-3.015,3.349-22.355,6.852-38.749,8.067
				c-1.034-3.254-1.35-8.536-2.536-15.58c-0.947-5.618-2.469-12.364-5.359-20.106c-0.67-1.799-1.416-3.656-2.249-5.57
				c-2.057-4.718,2.172-11.675,11.647-15.255c3.072-1.158,8.096-1.828,13.101-0.852c4.651,0.9,16.518,3.416,17.494,9.398
				c0.545,3.33,7.35,9.886,1.828,15.656C181.278,308.861,186.092,326.891,184.331,330.662z"/>
			<path style="fill:#263238;" d="M172.926,249.876c0,0,3.964-4.723-6.443-8.573s-23.502,1.04-24.621,15.158
				c-1.119,14.118-7.743,16.553-1.812,21.365c5.931,4.812,15.467-0.487,24.456,0.587c8.99,1.074,10.37,5.129,11.713-2.751
				c1.343-7.88,0.376-17.881,0.376-17.881S178.345,250.35,172.926,249.876z"/>
			<g>
				<path style="fill:#CE7A63;" d="M150.9,265.715c-0.019,5.167-0.839,13.398-3.818,17.139c0,0,4.663,3.338,15.731,10.245
					c4.036-7.078-0.532-8.502-0.532-8.502c-3.589-1.855-2.562-4.392-1.647-8.009L150.9,265.715z"/>
				<path style="opacity:0.2;" d="M160.469,276.547l-8.487-6.928c-0.366,0.793-0.293,2.044,0.117,3.177
					c1.216,3.28,4.705,6.295,7.853,8.126C159.87,279.428,160.127,277.905,160.469,276.547z"/>
			</g>
			<path style="opacity:0.2;" d="M137.07,301.447c1.902,4.85,3.26,9.334,4.263,13.4c2.61-5.857,4.86-15.958,3.727-20.22
				L137.07,301.447z"/>
			<g>
				<path style="fill:#CE7A63;" d="M149.959,255.868c-0.573,8.369-0.99,11.899,2.572,16.693c5.358,7.211,15.567,6.046,18.581-1.992
					c2.713-7.235,3.194-19.705-4.351-24.04C159.329,242.259,150.532,247.499,149.959,255.868z"/>
				<path style="fill:#263238;" d="M161.805,262.53c-0.079,0.613,0.182,1.153,0.583,1.205c0.401,0.052,0.79-0.404,0.87-1.017
					c0.079-0.613-0.182-1.153-0.583-1.205C162.274,261.461,161.885,261.917,161.805,262.53z"/>
				<path style="fill:#263238;" d="M169.336,263.613c-0.079,0.613,0.181,1.153,0.583,1.205c0.401,0.052,0.79-0.403,0.87-1.017
					c0.079-0.613-0.182-1.153-0.583-1.205S169.415,263,169.336,263.613z"/>
				<path style="fill:#263238;" d="M170.024,262.607l1.528-0.234C171.553,262.373,170.648,263.426,170.024,262.607z"/>
				<path style="fill:#BA4D3C;" d="M167.452,263.542c0,0,0.7,2.776,1.681,4.198c-0.908,0.651-2.24,0.128-2.24,0.128L167.452,263.542
					z"/>
				<path style="fill:#CE7A63;" d="M147.117,262.94c0.239,1.752,1.193,3.104,2.272,3.801c1.623,1.049,3.112-0.625,3.228-2.758
					c0.105-1.92-0.613-4.78-2.515-4.948C148.228,258.87,146.843,260.936,147.117,262.94z"/>
				<path style="fill:#263238;" d="M160.783,258.597c0.096,0.001,0.192-0.037,0.264-0.112c1.122-1.169,2.437-0.937,2.452-0.934
					c0.195,0.035,0.387-0.092,0.424-0.29c0.037-0.197-0.092-0.387-0.29-0.424c-0.069-0.013-1.72-0.306-3.112,1.145
					c-0.139,0.145-0.134,0.375,0.011,0.514C160.603,258.563,160.693,258.596,160.783,258.597z"/>
				<path style="fill:#263238;" d="M172.51,260.659c0.089,0.013,0.184-0.007,0.263-0.063c0.163-0.116,0.202-0.343,0.086-0.507
					c-1.163-1.639-2.839-1.592-2.911-1.589c-0.201,0.008-0.357,0.177-0.349,0.377c0.008,0.2,0.176,0.356,0.376,0.349
					c0.066-0.003,1.366-0.02,2.29,1.284C172.326,260.594,172.415,260.645,172.51,260.659z"/>
				<path style="fill:#263238;" d="M162.493,261.524l1.528-0.234C164.022,261.29,163.117,262.343,162.493,261.524z"/>
				<path style="fill:#263238;" d="M169.693,247.155c-2.063,7.559-16.415,13.657-20.458,14.309
					c-4.044,0.652-4.44-6.844-0.304-11.614S161.978,241.013,169.693,247.155z"/>
				<path style="fill:#263238;" d="M168.546,247.629c-0.874,5.145-4.679,8.127-4.679,8.127s5.114-1.309,7.681-4.843L168.546,247.629
					z"/>
				<g>
					<path style="fill:#263238;" d="M165.043,270.869c-0.922,0.603-2.305,1.949-2.305,1.949c-0.145-0.103-0.289-0.207-0.428-0.317
						c-1.925-1.45-2.339-2.759-2.214-3.77c0.07-0.553,0.31-1.019,0.55-1.365c0.273-0.403,0.56-0.628,0.56-0.628
						c0.561,1.379,2.252,2.869,3.189,3.627C164.783,270.686,165.043,270.869,165.043,270.869z"/>
					<path style="fill:#FFFFFF;" d="M164.395,270.364l-0.695,0.557c-1.81-1.371-2.901-2.578-3.054-3.556
						c0.273-0.403,0.56-0.628,0.56-0.628C161.768,268.116,163.458,269.606,164.395,270.364z"/>
					<path style="fill:#A24E3F;" d="M162.31,272.5c-1.925-1.45-2.339-2.759-2.214-3.77c0.637,0.519,1.347,1.217,1.819,2.034
						C162.277,271.388,162.352,271.984,162.31,272.5z"/>
				</g>
			</g>
			<g>
				<path style="fill:#263238;" d="M181.766,294.927c-0.099,0.383,0.141,0.737,0.534,0.792l7.004,0.98
					c0.394,0.055,0.793-0.21,0.892-0.593l3.499-13.604c0.099-0.383-0.127-0.833-0.521-0.888l-7.004-0.98
					c-0.394-0.055-0.806,0.306-0.905,0.688L181.766,294.927z"/>
				<path style="opacity:0.5;fill:#FFFFFF;" d="M186.054,281.34l-3.538,13.735c-0.1,0.387,0.068,0.683,0.458,0.738l5.939,0.831
					c0.398,0.056,1.159-0.062,1.259-0.449l3.545-13.783c0.1-0.387-0.536-0.798-0.934-0.853l-5.939-0.831
					C186.453,280.674,186.154,280.953,186.054,281.34z"/>
			</g>
			<g>
				<path style="fill:#CE7A63;" d="M175.987,296.657l2.389-5.138l7.5,5.496c0,0-3.295,4.494-7.468,5.745l-0.825-0.899
					C176.241,300.399,175.654,298.485,175.987,296.657z"/>
				<path style="fill:#CE7A63;" d="M184.412,289.93l2.346,2.239c1.07,1.021,1.117,2.713,0.105,3.791l-0.989,1.054l-7.5-5.496
					l2.631-1.845C182.057,288.936,183.483,289.043,184.412,289.93z"/>
			</g>
			<path style="opacity:0.2;" d="M153.391,324.566c-3.12,2.239-7.216,0.593-10.345-1.416c-0.947-5.618-2.469-12.364-5.359-20.106
				c0.182-0.402,0.411-0.727,0.679-0.957C141.515,299.387,159.191,320.384,153.391,324.566z"/>
			<path style="fill:#CE7A63;" d="M147.233,294.31c0.084,0.417,0.229,1.091,0.361,1.653l0.421,1.78
				c0.303,1.186,0.604,2.374,0.953,3.538c0.675,2.333,1.474,4.591,2.365,6.673c0.9,2.064,1.949,3.964,3.025,5.323
				c0.534,0.687,1.079,1.191,1.536,1.561c0.466,0.372,0.837,0.563,1.236,0.695c-0.001,0.011,0.266,0.048-0.151,0.018
				c-0.145,0-0.268,0.008-0.357,0.013c-0.092,0.004-0.222,0.033-0.275,0.038c-0.326,0.071-0.384,0.113-0.419,0.146
				c-0.003,0.04,0.283-0.062,0.623-0.237c0.705-0.363,1.618-1.017,2.508-1.737c1.794-1.477,3.685-3.215,5.495-5.051
				c3.67-3.645,7.294-7.636,10.931-11.499l0.064-0.068c1.33-1.412,3.553-1.479,4.966-0.149c1.149,1.082,1.404,2.758,0.746,4.104
				c-2.482,5.063-5.314,9.777-8.587,14.436c-1.677,2.301-3.399,4.607-5.546,6.84c-1.088,1.124-2.23,2.245-3.78,3.383
				c-0.788,0.57-1.684,1.141-2.948,1.674c-0.669,0.261-1.375,0.517-2.375,0.668c-0.218,0.041-0.52,0.063-0.779,0.083
				c-0.258,0.022-0.55,0.027-0.864,0.014c-0.757-0.033-0.822-0.066-1.159-0.098c-2.277-0.272-4.482-1.084-6.299-2.163
				c-1.83-1.077-3.327-2.391-4.587-3.727c-2.529-2.691-4.212-5.534-5.618-8.354c-1.403-2.822-2.45-5.666-3.332-8.515
				c-0.43-1.428-0.829-2.855-1.159-4.3c-0.166-0.722-0.329-1.446-0.471-2.18c-0.144-0.762-0.263-1.416-0.403-2.333
				c-0.586-3.836,2.048-7.42,5.884-8.006c3.72-0.568,7.204,1.893,7.945,5.541L147.233,294.31z"/>
			<path style="fill:#263238;" d="M316.881,374.023c-5.68,4.331-12.516,3.878-15.592-0.323c-1.696-2.316-8.679,3.574-8.679,3.574
				c6.977,5.648,6.465,7.798,7.545,9.901c1.084,2.113,2.872,3.895,4.313,2.672c1.726-1.464,2.224-2.488,4.394-4.278
				c2.537-2.093,5.275-4.364,9.64-8.247C320.247,375.769,319.408,372.097,316.881,374.023z"/>
			<path style="fill:#407BFF;" d="M303.461,373.819l-7.01,7.282c-10.574-4.15-19.358-8.003-26.674-11.525
				c-33.989-16.388-36.417-25.833-41.161-26.343c-0.577-0.059-1.511,0.204-2.75,0.738c-11.126,4.727-46.652,30.416-64.974,24.985
				c-20.368-6.043-15.318-30.23-15.318-30.23c54.637-18.136,88.805-20.809,102.825-11.966
				C262.419,335.595,303.461,373.819,303.461,373.819z"/>
			<path style="opacity:0.2;enable-background:new    ;" d="M303.461,373.819l-7.01,7.282c-10.574-4.15-19.358-8.003-26.674-11.525
				c-33.989-16.388-36.417-25.833-41.161-26.343c-0.577-0.059-1.511,0.204-2.75,0.738c-11.126,4.727-46.652,30.416-64.974,24.985
				c-20.368-6.043-15.318-30.23-15.318-30.23c54.637-18.136,88.805-20.809,102.825-11.966
				C262.419,335.595,303.461,373.819,303.461,373.819z"/>
			<path style="opacity:0.2;" d="M269.777,369.576c-33.989-16.388-36.417-25.833-41.161-26.343c-0.577-0.059-1.511,0.204-2.75,0.738
				l0.127-0.441c0,0,14.691-3.895,24.594-0.484C257.76,345.516,265.856,361.149,269.777,369.576z"/>
		</g>
		<g>
			<polygon style="fill:#263238;" points="241.252,401.419 244.222,419.605 237.857,419.605 232.011,402.258 			"/>
			<polygon style="fill:#263238;" points="161.151,401.419 158.181,419.605 164.546,419.605 170.392,402.258 			"/>
			<polygon style="opacity:0.1;fill:#FFFFFF;enable-background:new    ;" points="241.252,401.419 244.222,419.605 237.857,419.605 
				232.011,402.258 			"/>
			<polygon style="opacity:0.1;fill:#FFFFFF;enable-background:new    ;" points="161.151,401.419 158.181,419.605 164.546,419.605 
				170.392,402.258 			"/>
			<polygon style="fill:#263238;" points="195.492,401.419 198.462,419.605 192.097,419.605 186.251,402.258 			"/>
			<polygon style="fill:#263238;" points="108.597,401.419 105.627,419.605 111.992,419.605 117.838,402.258 			"/>
			<g>
				<path style="fill:#263238;" d="M96.197,370.926c0-4.05,3.283-7.333,7.332-7.333h143.12c4.05,0,7.332,3.283,7.332,7.333v27.768
					c0,4.05-3.283,7.332-7.332,7.332h-143.12c-4.05,0-7.332-3.283-7.332-7.332V370.926z"/>
				<path style="opacity:0.1;fill:#FFFFFF;enable-background:new    ;" d="M96.197,370.926c0-4.05,3.283-7.333,7.332-7.333h143.12
					c4.05,0,7.332,3.283,7.332,7.333v27.768c0,4.05-3.283,7.332-7.332,7.332h-143.12c-4.05,0-7.332-3.283-7.332-7.332V370.926z"/>
				<path style="opacity:0.2;fill:#FFFFFF;enable-background:new    ;" d="M151.297,370.926c0-4.05,3.283-7.333,7.332-7.333h88.02
					c4.05,0,7.332,3.283,7.332,7.333v27.768c0,4.05-3.283,7.332-7.332,7.332h-88.02c-4.05,0-7.332-3.283-7.332-7.332V370.926z"/>
			</g>
			<g>
				<path style="fill:#263238;" d="M88.881,403.782h51.12c5.449,0,9.867-4.418,9.867-9.867v-40.192c0-5.449-4.418-9.867-9.867-9.867
					H88.881c-5.449,0-9.867,4.418-9.867,9.867v40.191C79.014,399.365,83.432,403.782,88.881,403.782z"/>
				<path style="opacity:0.1;fill:#FFFFFF;enable-background:new    ;" d="M88.881,403.782h51.12c5.449,0,9.867-4.418,9.867-9.867
					v-40.192c0-5.449-4.418-9.867-9.867-9.867H88.881c-5.449,0-9.867,4.418-9.867,9.867v40.191
					C79.014,399.365,83.432,403.782,88.881,403.782z"/>
				<path style="opacity:0.2;fill:#FFFFFF;enable-background:new    ;" d="M140.001,403.782L140.001,403.782
					c5.449,0,9.867-4.418,9.867-9.867v-40.191c0-5.449-4.418-9.867-9.867-9.867l0,0c-5.449,0-9.867,4.418-9.867,9.867v40.191
					C130.135,399.365,134.552,403.782,140.001,403.782z"/>
			</g>
		</g>
		<g>
			<path style="fill:#263238;" d="M261.422,413.5c-0.098-2.341,0.158-5.812-1.306-11.316c0,0,7.421-3.933,7.793-1.112
				c0.674,5.119,5.451,12.599,11.374,13.612c3.38,0.578,1.154,3.16-1.276,3.791c-3.867,1.004-4.206,0.397-7.593-0.626
				c-2.896-0.875-4.035-1.214-6.391-0.592C262.055,417.776,261.52,415.852,261.422,413.5z"/>
			<path style="fill:#407BFF;" d="M269.005,401.418L260,405.662c0,0-22.108-32.81-25.248-41.474c0,0-15.089,0.305-35.466-0.323
				c-3.692-0.11-5.889-0.025-9.878-0.271c0,0,19.239-17.347,36.586-20.063c0.883-0.144,1.757-0.238,2.622-0.297
				c0,0,15.42-1.214,19.783,2.512C252.77,349.48,269.005,401.418,269.005,401.418z"/>
			<path style="opacity:0.2;" d="M269.005,401.418L260,405.662c0,0-22.108-32.81-25.248-41.474c0,0-15.089,0.305-35.466-0.323
				c-3.692-0.11-5.889-0.025-9.878-0.271c0,0,19.239-17.347,36.586-20.063c0.883-0.144,1.757-0.238,2.622-0.297
				c0,0,15.42-1.214,19.783,2.512C252.77,349.48,269.005,401.418,269.005,401.418z"/>
			<path style="opacity:0.2;" d="M225.994,343.53c-6.764,8.113-17.873,15.259-26.708,20.334c-3.692-0.11-5.889-0.025-9.878-0.271
				C189.408,363.593,208.647,346.246,225.994,343.53z"/>
		</g>
	</g>
</g>
</svg>
